<?xml version="1.0" standalone="no"?><!DOCTYPE svg PUBLIC "-//W3C//DTD SVG 1.1//EN" "http://www.w3.org/Graphics/SVG/1.1/DTD/svg11.dtd"><svg t="1627728704483" class="icon" viewBox="0 0 1024 1024" version="1.1" xmlns="http://www.w3.org/2000/svg" p-id="2049" xmlns:xlink="http://www.w3.org/1999/xlink" width="200" height="200"><defs><style type="text/css"></style></defs><path d="M512 512m-441 0a441 441 0 1 0 882 0 441 441 0 1 0-882 0Z" fill="#FFFFFF" p-id="2050"></path><path d="M512 80c238.2 0 432 193.8 432 432S750.2 944 512 944 80 750.2 80 512 273.8 80 512 80m0-18C263.5 62 62 263.5 62 512s201.5 450 450 450 450-201.5 450-450S760.5 62 512 62z" fill="#E1F3F9" p-id="2051"></path><path d="M535.1 458.4c12.7 25.6 20 60.8 21 89.6-31.3 15.4-59.9 33.6-86.7 57.7 11 2 17.1 6.7 25.9 13.7 5.6 4.5 11.9 6.9 18.7 8.1-6 6.6-11.7 14.5-15.7 19.2-15.4 17.7-31.5 38.9-48 55.8-9.1 9.3-16.8 13.8-25.2 13.8-6.9 0-14.2-3-23.3-8.9-9.8-6.4-13.8-20.6-23.4-29.4-21.5-19.8-43.7-41.8-67.8-59.2-10-7.2-21.5-9.8-33.1-13 0.4 1.5 1.7 3.3 2.4 4.4 8.9 15.2 13.4 29.6 14 47.1 0.4 11.7 1.5 23.4 3.8 34.8 1.1 5.5 2.8 11.5 4.2 16.4 1.4 4.8 0.9 5.4-3.7 6-19.9 2.6-38.2 7.6-56.2 16.9 6.5 2.5 12.8 6.8 19.6 8.3 18.5 4.1 36.3 5.9 54.2 5.9 16.3 0 32.6-1.5 49.6-4 36.5 15.4 73.7 28.8 113.5 28.8 2.9 0 5.8-0.1 8.8-0.2 61.8-3.1 118.2-18.3 166.7-58.6C719.6 657.2 759.6 590.5 762 503c2-71.3-24.9-135.7-72.6-183.3-11.6 77.4-76.9 135.3-154.3 138.7zM448.4 287.9c0-2.6-0.8-5-2-7.1-4.1-0.6-7.6-3-9.7-6.5-0.7-0.1-1.3-0.2-2-0.2-7.6 0-13.7 6.1-13.7 13.7 0 5.9 3.7 10.9 8.9 12.8 1.5 0.6 3.1 0.9 4.8 0.9 7.6 0.1 13.7-6 13.7-13.6z" fill="#3585F9" p-id="2052"></path><path d="M446.4 280.8c0.7 0.1 1.3 0.2 2 0.2 7.6 0 13.7-6.1 13.7-13.7 0-1.1-0.2-2.2-0.4-3.2-1.4-6-6.8-10.5-13.3-10.5-7.6 0-13.7 6.1-13.7 13.7 0 2.6 0.8 5 2 7.1 2.1 3.4 5.6 5.8 9.7 6.4zM787.1 409.4c-5.3-7.5-11.7-7.2-20.2-7.3-1.1 0-2.1 0.2-3.2 0.4-2.7 0.4-5.4 1-7.8 1.8 5 14.2 8.8 28.9 11.5 43.8 2.6 14.4 4.1 29 4.5 43.8 0.1 2.6 0.1 5.1 0.1 7.7 0 8.9-0.4 17.8-1.2 26.5 0.4 0.3 0.8 0.7 1.4 1 2.2 1.2 4 2.6 5.8 4 5.9 4.7 9.6 10.4 12.5 17.8 0.6 1.4 0.4 3.2 1.3 4.2s1.5-0.6 2.5-0.6c4.1-16 9.4-34.9 11.3-50.5 2.9-24.3 1.6-46.5-4.6-68.6-2.9-10.1-8.7-16.5-13.9-24z" fill="#3585F9" p-id="2053"></path><path d="M653.9 290c-9.2-6.4-16.9-9.8-27.2-14.2-33.7-14.1-70.1-15.7-106.4-16.6h-2c-17.2 0-33.2 4.9-50.3 6.4-0.7 0.1-1.2 0.1-1.8 0.1-1.8 0-3-0.4-4.5-1.5 0.2 1 0.4 2.1 0.4 3.2 0 7.6-6.1 13.7-13.7 13.7-0.7 0-1.4-0.1-2-0.2 1.3 2.1 2 4.5 2 7.1 0 7.6-6.1 13.7-13.7 13.7-1.7 0-3.3-0.3-4.8-0.9 0.3 0.7 0.5 1.4 0.8 2.3 1.4 3.5-0.7 0.2 3.3 9.9 12.6 30.4 38.5 73.2 64.3 99.1 5.2 5.2 16.6 17.8 26.4 28.5h0.9c35.4 0.6 69.3-11.3 96.5-34.4 27.2-23.1 44.5-54.7 49.6-89.7 0.5-3.1 1-6.2 1.2-9.4 0.1-0.7 0.4-1.3 0.5-1.9-6.1-5.3-12.6-10.5-19.5-15.2z m-65.7 29.1c8-3.1 17.2-1.1 21.8 6.4 4.6 7.6 1 14.2-6.9 17.3-7.9 3.1-17.9 2.1-22.7-5.7-4.7-7.8-0.1-14.8 7.8-18z" fill="#3585F9" p-id="2054"></path><path d="M227.4 422.3c-10.7 18.8-11.5 47.9-9.8 73.9 0.6 9.9 10.2 66.9 19.7 87.4 1.1 2.5 4.8 1.8 5.1-0.9 2-20.5 2.8-79.5 18.2-94.3 10.4-10 20.8-20 28.7-27.4 22-20.7 12.9-45.8-4.5-54.4-17.3-8.7-42.1-11.3-57.4 15.7zM378.8 449.3c-10.4-13.2-35.1-15.5-48.6 0.1-6 6.9-9.6 14.9-11.6 23.5-2.3 9.9-5 31.2-5.6 61.8 0 2 2.7 2.5 3.5 0.7 8.8-20 20.3-27.5 27.9-32.8 6.4-4.5 12.8-7.5 27.9-6.6 26.3 1.5 16.9-33.5 6.5-46.7zM372.7 540.7c21 9 20.4 7.7 34.9 23.9 15.2 17.1 29.9-0.8 31.2-13.7 1.2-13-10.7-26.5-25.5-27.9-13.6-1.3-30.9 3-41.6 13.3-1.3 1.4-0.7 3.7 1 4.4z" fill="#FF7300" p-id="2055"></path></svg>